<svg width="375" height="300" viewBox="0 0 375 300" fill="none" xmlns="http://www.w3.org/2000/svg">
<path d="M60.0004 232C60.0004 214.327 70.7455 200 84.0004 200H292C305.255 200 316 214.327 316 232V268C316 285.673 305.255 300 292 300H84.0004C70.7455 300 60.0004 285.673 60.0004 268V232Z" fill="black"/>
<path d="M295.44 300C274.762 300 258 287.408 258 271.875L258 28.125C258 12.592 274.762 -7.3271e-07 295.44 -1.63655e-06L337.56 -3.47768e-06C358.238 -4.38152e-06 375 12.592 375 28.125L375 271.875C375 287.408 358.238 300 337.56 300L295.44 300Z" fill="black"/>
<path d="M36.8 300C16.4759 300 -5.50413e-07 287.408 -1.22938e-06 271.875L-1.1884e-05 28.125C-1.2563e-05 12.592 16.4759 -7.20186e-07 36.8 -1.60858e-06L78.2 -3.41823e-06C98.5241 -4.30662e-06 115 12.592 115 28.125L115 271.875C115 287.408 98.5241 300 78.2 300L36.8 300Z" fill="black"/>
<rect x="60.0004" width="246" height="246" rx="89.8459" fill="white"/>
<path d="M87.4289 0C72.2861 0 60.0004 12.2857 60.0004 27.4286V228.571C60.0004 243.714 72.2861 256 87.4289 256H288.572C303.715 256 316 243.714 316 228.571V27.4286C316 12.2857 303.715 0 288.572 0H87.4289ZM187.867 36.5737C211.268 36.4034 233.791 48.7286 246.434 69.6103C262.293 95.8063 258.851 129.371 237.994 151.493C235.467 154.173 232.793 156.718 230.108 159.242C225.092 163.955 222.009 169.477 221.85 176.57C221.743 181.322 219.198 184.651 214.522 185.942C213.859 186.13 163.362 199.7 163.362 199.7C160.578 200.446 157.69 198.777 156.943 195.993L156.829 195.563C156.083 192.779 157.751 189.891 160.535 189.145C160.535 189.145 204.545 176.814 203.795 177.511C207.808 176.522 210.132 174.467 211.102 170.323C213.176 161.465 218.938 154.87 225.26 148.743C235.738 138.593 242.8 126.785 244.703 111.992C247.55 89.848 236.809 66.9566 217.065 55.8457C195.802 43.88 174.474 44.6686 154.621 58.84C126.986 78.5657 122.936 116.651 145.078 142.414C151.248 149.593 157.518 156.685 164.402 164.574C182.514 161.927 182.513 161.927 182.514 143.508C182.515 132.058 182.584 120.607 182.484 109.158C182.447 105.083 183.78 101.902 188.134 102.003C192.435 102.103 193.691 105.394 193.677 109.392C193.613 127.051 193.574 144.712 193.69 162.371C193.719 166.747 192.07 169.17 187.729 170.225C179.263 172.281 170.908 174.798 162.44 176.847C156.343 178.323 155.54 176.566 153.037 170.945C150.54 165.338 146.468 160.083 142.038 155.745C123.152 137.248 115.69 115.161 121.686 89.4823C127.743 63.5394 144.4 46.6686 169.949 39.204C175.771 37.5021 181.801 36.6169 187.867 36.5737ZM188.093 79.0091C192.694 79.0583 194.975 81.7771 195.303 85.9966C194.946 90.8583 192.196 93.5983 187.927 93.5291C183.675 93.4606 180.582 90.5469 180.683 86.1103C180.783 81.7937 183.489 78.9589 188.093 79.0091ZM212.595 198.051C214.871 198.146 216.932 199.701 217.551 202.01C218.312 204.851 216.611 207.799 213.77 208.56L173.886 219.247C171.044 220.008 168.098 218.307 167.336 215.465C166.575 212.624 168.276 209.677 171.117 208.915L211 198.229C211.52 198.089 212.058 198.029 212.595 198.051Z" fill="black"/>
<path d="M101.435 259.455H104.659L108.978 269.994H109.148L113.466 259.455H116.691V274H114.162V264.007H114.027L110.007 273.957H108.118L104.098 263.986H103.963V274H101.435V259.455ZM121.428 274H118.615L123.736 259.455H126.989L132.117 274H129.304L125.419 262.438H125.306L121.428 274ZM121.52 268.297H129.191V270.413H121.52V268.297ZM145.986 259.455V274H143.642L136.788 264.092H136.668V274H134.033V259.455H136.391L143.237 269.369H143.365V259.455H145.986ZM150.725 274H147.912L153.033 259.455H156.286L161.414 274H158.601L154.716 262.438H154.603L150.725 274ZM150.817 268.297H158.488V270.413H150.817V268.297ZM172.39 264.099C172.272 263.716 172.109 263.373 171.9 263.07C171.697 262.762 171.45 262.499 171.162 262.281C170.877 262.063 170.551 261.9 170.181 261.791C169.812 261.678 169.41 261.621 168.974 261.621C168.193 261.621 167.497 261.817 166.886 262.21C166.275 262.603 165.795 263.181 165.444 263.943C165.099 264.701 164.926 265.624 164.926 266.713C164.926 267.812 165.099 268.742 165.444 269.504C165.79 270.267 166.27 270.847 166.886 271.244C167.502 271.637 168.217 271.834 169.031 271.834C169.77 271.834 170.409 271.692 170.949 271.408C171.493 271.124 171.912 270.721 172.206 270.2C172.499 269.675 172.646 269.059 172.646 268.354L173.243 268.446H169.294V266.386H175.196V268.134C175.196 269.379 174.931 270.456 174.4 271.365C173.87 272.274 173.141 272.975 172.213 273.467C171.285 273.955 170.219 274.199 169.017 274.199C167.677 274.199 166.5 273.898 165.487 273.297C164.478 272.691 163.69 271.831 163.122 270.719C162.558 269.601 162.277 268.276 162.277 266.741C162.277 265.567 162.442 264.518 162.774 263.595C163.11 262.672 163.579 261.888 164.18 261.244C164.781 260.596 165.487 260.103 166.297 259.767C167.106 259.426 167.987 259.256 168.939 259.256C169.744 259.256 170.494 259.374 171.19 259.611C171.886 259.843 172.504 260.174 173.044 260.605C173.588 261.036 174.036 261.547 174.386 262.139C174.736 262.731 174.966 263.384 175.075 264.099H172.39ZM177.744 274V259.455H187.204V261.663H180.379V265.612H186.714V267.821H180.379V271.791H187.261V274H177.744ZM189.892 274V259.455H195.347C196.464 259.455 197.402 259.649 198.159 260.037C198.921 260.425 199.497 260.97 199.885 261.67C200.278 262.366 200.474 263.179 200.474 264.107C200.474 265.039 200.276 265.849 199.878 266.536C199.485 267.217 198.905 267.745 198.138 268.119C197.371 268.489 196.429 268.673 195.311 268.673H191.426V266.486H194.956C195.609 266.486 196.144 266.396 196.561 266.216C196.978 266.031 197.286 265.764 197.484 265.413C197.688 265.058 197.79 264.623 197.79 264.107C197.79 263.59 197.688 263.15 197.484 262.786C197.281 262.416 196.971 262.137 196.554 261.947C196.137 261.753 195.6 261.656 194.942 261.656H192.527V274H189.892ZM197.406 267.409L201.007 274H198.067L194.53 267.409H197.406ZM207.861 274V259.455H213.429C214.48 259.455 215.354 259.62 216.05 259.952C216.75 260.278 217.274 260.726 217.619 261.294C217.97 261.862 218.145 262.506 218.145 263.226C218.145 263.818 218.031 264.324 217.804 264.746C217.577 265.162 217.271 265.501 216.888 265.761C216.504 266.022 216.076 266.209 215.602 266.322V266.464C216.118 266.493 216.613 266.652 217.087 266.94C217.565 267.224 217.956 267.627 218.259 268.148C218.562 268.669 218.713 269.298 218.713 270.037C218.713 270.79 218.531 271.467 218.166 272.068C217.802 272.665 217.252 273.136 216.518 273.482C215.785 273.827 214.861 274 213.749 274H207.861ZM210.496 271.798H213.33C214.286 271.798 214.975 271.616 215.396 271.251C215.822 270.882 216.036 270.409 216.036 269.831C216.036 269.4 215.929 269.012 215.716 268.666C215.503 268.316 215.2 268.041 214.807 267.842C214.414 267.639 213.945 267.537 213.401 267.537H210.496V271.798ZM210.496 265.641H213.102C213.557 265.641 213.966 265.558 214.331 265.392C214.696 265.222 214.982 264.982 215.19 264.675C215.403 264.362 215.51 263.993 215.51 263.567C215.51 263.003 215.311 262.539 214.913 262.175C214.52 261.81 213.936 261.628 213.159 261.628H210.496V265.641ZM221.005 274V259.455H223.64V271.791H230.047V274H221.005ZM244.764 266.727C244.764 268.295 244.471 269.637 243.884 270.754C243.301 271.867 242.506 272.719 241.497 273.311C240.493 273.903 239.355 274.199 238.081 274.199C236.807 274.199 235.666 273.903 234.658 273.311C233.654 272.714 232.858 271.86 232.271 270.747C231.689 269.63 231.398 268.29 231.398 266.727C231.398 265.16 231.689 263.82 232.271 262.707C232.858 261.59 233.654 260.735 234.658 260.143C235.666 259.552 236.807 259.256 238.081 259.256C239.355 259.256 240.493 259.552 241.497 260.143C242.506 260.735 243.301 261.59 243.884 262.707C244.471 263.82 244.764 265.16 244.764 266.727ZM242.115 266.727C242.115 265.624 241.942 264.694 241.597 263.936C241.256 263.174 240.782 262.598 240.176 262.21C239.57 261.817 238.872 261.621 238.081 261.621C237.29 261.621 236.592 261.817 235.986 262.21C235.38 262.598 234.904 263.174 234.558 263.936C234.217 264.694 234.047 265.624 234.047 266.727C234.047 267.83 234.217 268.763 234.558 269.526C234.904 270.283 235.38 270.858 235.986 271.251C236.592 271.64 237.29 271.834 238.081 271.834C238.872 271.834 239.57 271.64 240.176 271.251C240.782 270.858 241.256 270.283 241.597 269.526C241.942 268.763 242.115 267.83 242.115 266.727ZM259.706 264.362H257.049C256.974 263.927 256.834 263.541 256.63 263.205C256.427 262.864 256.173 262.575 255.87 262.338C255.567 262.101 255.222 261.924 254.833 261.805C254.45 261.682 254.036 261.621 253.591 261.621C252.8 261.621 252.099 261.82 251.488 262.217C250.877 262.61 250.399 263.188 250.054 263.95C249.708 264.708 249.535 265.634 249.535 266.727C249.535 267.84 249.708 268.777 250.054 269.54C250.404 270.297 250.882 270.87 251.488 271.259C252.099 271.642 252.797 271.834 253.583 271.834C254.019 271.834 254.426 271.777 254.805 271.663C255.189 271.545 255.532 271.372 255.835 271.145C256.143 270.918 256.401 270.638 256.609 270.307C256.822 269.975 256.969 269.597 257.049 269.17L259.706 269.185C259.606 269.876 259.391 270.525 259.059 271.131C258.733 271.737 258.304 272.272 257.774 272.736C257.244 273.195 256.623 273.555 255.913 273.815C255.203 274.071 254.414 274.199 253.548 274.199C252.27 274.199 251.128 273.903 250.125 273.311C249.121 272.719 248.33 271.865 247.752 270.747C247.175 269.63 246.886 268.29 246.886 266.727C246.886 265.16 247.177 263.82 247.76 262.707C248.342 261.59 249.135 260.735 250.139 260.143C251.143 259.552 252.279 259.256 253.548 259.256C254.358 259.256 255.11 259.369 255.806 259.597C256.502 259.824 257.123 260.158 257.667 260.598C258.212 261.034 258.659 261.569 259.01 262.203C259.365 262.833 259.597 263.553 259.706 264.362ZM262.119 274V259.455H264.754V266.138H264.931L270.606 259.455H273.823L268.198 265.982L273.873 274H270.705L266.366 267.764L264.754 269.668V274H262.119Z" fill="white"/>
</svg>
