<svg width="33" height="33" viewBox="0 0 33 33" fill="none" xmlns="http://www.w3.org/2000/svg">
<rect x="0.686523" y="0.577011" width="32" height="32" rx="4" fill="white"/>
<path d="M4.1151 0.577011C2.22224 0.577011 0.686523 2.11273 0.686523 4.00558V29.1484C0.686523 31.0413 2.22224 32.577 4.1151 32.577H29.258C31.1508 32.577 32.6865 31.0413 32.6865 29.1484V4.00558C32.6865 2.11273 31.1508 0.577011 29.258 0.577011H4.1151ZM16.6698 5.14873C19.595 5.12744 22.4103 6.66808 23.9907 9.2783C25.9731 12.5528 25.5429 16.7484 22.9357 19.5137C22.6198 19.8486 22.2856 20.1668 21.95 20.4822C21.323 21.0714 20.9376 21.7617 20.9177 22.6483C20.9044 23.2423 20.5862 23.6584 20.0017 23.8197C19.9189 23.8432 13.6067 25.5395 13.6067 25.5395C13.2587 25.6327 12.8977 25.4242 12.8044 25.0762L12.7901 25.0224C12.6968 24.6744 12.9053 24.3134 13.2534 24.2202C13.2534 24.2202 18.7546 22.6787 18.6609 22.7659C19.1625 22.6423 19.453 22.3854 19.5742 21.8674C19.8335 20.7602 20.5537 19.9357 21.344 19.1699C22.6537 17.9011 23.5365 16.4252 23.7743 14.576C24.1302 11.808 22.7876 8.94658 20.3196 7.55773C17.6617 6.06201 14.9957 6.16058 12.5141 7.93201C9.05974 10.3977 8.55352 15.1584 11.3212 18.3788C12.0925 19.2761 12.8762 20.1626 13.7367 21.1487C16.0007 20.8179 16.0006 20.8179 16.0007 18.5155C16.0008 17.0843 16.0095 15.6529 15.997 14.2218C15.9924 13.7124 16.159 13.3148 16.7032 13.3274C17.2409 13.3399 17.3979 13.7513 17.3961 14.251C17.3881 16.4584 17.3832 18.666 17.3977 20.8734C17.4013 21.4204 17.1952 21.7232 16.6526 21.8551C15.5943 22.1122 14.55 22.4268 13.4915 22.6829C12.7293 22.8674 12.629 22.6477 12.3161 21.9452C12.004 21.2443 11.495 20.5874 10.9412 20.0452C8.58052 17.733 7.64774 14.9722 8.39717 11.7623C9.15431 8.51944 11.2365 6.41058 14.4301 5.47751C15.1578 5.26477 15.9116 5.15412 16.6698 5.14873ZM16.6981 10.4532C17.2732 10.4593 17.5583 10.7992 17.5993 11.3266C17.5547 11.9343 17.211 12.2768 16.6773 12.2682C16.1459 12.2596 15.7592 11.8954 15.7719 11.3408C15.7843 10.8012 16.1226 10.4469 16.6981 10.4532ZM19.7609 25.3334C20.0453 25.3452 20.303 25.5397 20.3803 25.8283C20.4755 26.1834 20.2628 26.5519 19.9077 26.647L14.9222 27.9829C14.567 28.078 14.1987 27.8654 14.1035 27.5102C14.0083 27.155 14.221 26.7866 14.5761 26.6914L19.5615 25.3556C19.6265 25.3381 19.6937 25.3307 19.7609 25.3334Z" fill="black"/>
</svg>
